<svg width="12" height="14" viewBox="0 0 12 14" fill="none" xmlns="http://www.w3.org/2000/svg">
    <path fill-rule="evenodd" clip-rule="evenodd" d="M6 0.333496C5.82319 0.333496 5.65362 0.403734 5.5286 0.528758C5.40357 0.653782 5.33333 0.823352 5.33333 1.00016V2.3335H1.33333C0.979711 2.3335 0.640573 2.47397 0.390524 2.72402C0.140476 2.97407 0 3.31321 0 3.66683V12.3335C0 12.6871 0.140476 13.0263 0.390524 13.2763C0.640573 13.5264 0.979711 13.6668 1.33333 13.6668H10.6667C11.0203 13.6668 11.3594 13.5264 11.6095 13.2763C11.8595 13.0263 12 12.6871 12 12.3335V3.66683C12 3.31321 11.8595 2.97407 11.6095 2.72402C11.3594 2.47397 11.0203 2.3335 10.6667 2.3335H6.66667V1.00016C6.66667 0.823352 6.59643 0.653782 6.4714 0.528758C6.34638 0.403734 6.17681 0.333496 6 0.333496ZM6.66667 2.3335V8.21883L7.88533 7.00016C8.01034 6.87507 8.17992 6.80476 8.35676 6.80469C8.53361 6.80463 8.70324 6.87482 8.82833 6.99983C8.95343 7.12483 9.02374 7.29441 9.0238 7.47126C9.02386 7.64811 8.95367 7.81773 8.82867 7.94283L6.58867 10.1822C6.43241 10.3383 6.22056 10.426 5.99967 10.426C5.77878 10.426 5.56693 10.3383 5.41067 10.1822L3.17133 7.94283C3.10944 7.88089 3.06035 7.80736 3.02687 7.72645C2.99338 7.64554 2.97617 7.55883 2.9762 7.47126C2.97623 7.38369 2.99351 7.29699 3.02705 7.2161C3.06058 7.13522 3.10973 7.06173 3.17167 6.99983C3.23361 6.93793 3.30713 6.88884 3.38804 6.85536C3.46896 6.82188 3.55567 6.80466 3.64324 6.80469C3.7308 6.80473 3.8175 6.822 3.89839 6.85554C3.97928 6.88908 4.05277 6.93822 4.11467 7.00016L5.33333 8.21883V2.3335H6.66667Z" fill="#000000"/>
</svg>